<?xml version="1.0" encoding="UTF-8"?>
<svg id="Layer_2" xmlns="http://www.w3.org/2000/svg" viewBox="0 0 288.7 93.38">
  <defs>
    <style>
      .cls-1 {
        fill: #44423a;
      }

      .cls-2 {
        fill: #d3d3cb;
      }
    </style>
  </defs>
  <g id="Layer_1-2" data-name="Layer_1">
    <g>
      <polygon class="cls-1" points="163.91 75.1 166.48 80.49 150.92 80.49 153.58 75.1 163.91 75.1"/>
      <polygon class="cls-1" points="179.56 93.38 172.64 93.38 166.48 80.47 163.91 75.07 158.83 64.43 153.58 75.06 150.92 80.47 144.55 93.38 137.62 93.38 158.85 50.06 179.56 93.38"/>
      <path class="cls-1" d="M216.44,71.09s0,.15,0,.22c0-.07,0-.22,0-.22h0Z"/>
      <path class="cls-1" d="M216.44,71.51h0c0-.11,0-.18,0-.28,0,.09,0,.17,0,.28Z"/>
      <path class="cls-1" d="M216.43,71.04c-.06-2.78-.64-5.44-1.65-7.87-1.6-3.86-4.28-7.15-7.67-9.47-1.69-1.16-3.56-2.09-5.56-2.72-1.98-.63-4.08-.94-6.26-.95-.02,0-.05.02-.07.02h-11.65v43.32h10.24c.12,0,.24-.02.35-.03,2.98-.04,5.83-.67,8.44-1.75,4.06-1.69,7.51-4.51,9.95-8.06,1.22-1.78,2.19-3.75,2.85-5.85.62-1.95.97-4.01,1.01-6.14,0-.09,0-.19,0-.28h0c0-.08,0-.15,0-.23ZM209.13,77.36c-1.25,2.91-3.35,5.4-6,7.16-1.33.88-2.79,1.6-4.35,2.08-1.56.48-3.22.76-4.95.76h-4.22v-31.27h5.69c2.08,0,4.04.41,5.83,1.18,2.72,1.17,5.05,3.12,6.69,5.59.82,1.24,1.47,2.6,1.92,4.05.42,1.39.66,2.86.68,4.4-.04,2.15-.49,4.18-1.29,6.04Z"/>
      <path class="cls-1" d="M195.29,50.01h-.07.07Z"/>
      <path class="cls-1" d="M194.14,93.33v.05h-.32c.12,0,.22-.05.32-.05Z"/>
      <polyline class="cls-1" points="220.25 50.06 220.25 93.38 226.27 93.38 226.27 50.06"/>
      <path class="cls-1" d="M117.7,72.3c.58-.14,1.14-.31,1.69-.53,2.13-.84,3.96-2.24,5.28-4.05.66-.9,1.19-1.91,1.55-2.99.36-1.08.56-2.24.56-3.43,0-1.59-.35-3.12-.98-4.49-.47-1.03-1.09-1.97-1.84-2.81-1.11-1.25-2.5-2.26-4.06-2.95-1.53-.68-3.23-1.07-5.02-1.09-.03,0-.06,0-.09,0h-.01l-4.56.02v-.02h-6.02v43.42h6.02v-20.91l.13.17,15.88,20.63h7.55l-16.09-20.97ZM114.79,55.98h0c.86,0,1.66.17,2.39.45,1.09.43,2,1.14,2.62,1.99.31.42.55.88.71,1.36.16.48.25.99.25,1.52,0,.71-.15,1.37-.43,1.99-.21.46-.5.9-.85,1.3-.53.6-1.22,1.12-2.01,1.48-.79.35-1.69.58-2.66.58h-4.56v-10.65l4.56-.02Z"/>
      <path class="cls-1" d="M114.9,49.97h-.09.09Z"/>
      <polygon class="cls-1" points="110.37 72.64 110.24 72.64 110.24 72.47 110.37 72.64"/>
      <path class="cls-1" d="M288.7,80.31c0,1.22-.18,2.42-.51,3.56-.33,1.14-.81,2.22-1.43,3.21-1.23,1.98-2.99,3.63-5.1,4.74-1.41.74-2.98,1.25-4.65,1.45-.57.07-1.14.11-1.71.11-1.86,0-3.66-.37-5.31-1.06-1.65-.68-3.15-1.68-4.4-2.93-.83-.84-1.56-1.79-2.14-2.85-.78-1.41-1.29-3-1.46-4.69l6.31-.63c.06.62.21,1.19.45,1.74.23.54.54,1.05.93,1.51.77.93,1.83,1.68,3.05,2.12.81.3,1.69.46,2.58.46.31,0,.62-.02.93-.06.68-.09,1.32-.26,1.91-.5.59-.25,1.13-.57,1.62-.94.97-.76,1.72-1.75,2.16-2.87.29-.74.45-1.53.45-2.36,0-.29-.02-.58-.06-.88-.07-.5-.19-.9-.34-1.24-.15-.34-.34-.64-.59-.93-.16-.19-.35-.38-.58-.57-.3-.25-.65-.5-1.06-.74-.55-.32-1.19-.63-1.92-.92-.97-.39-2.07-.76-3.25-1.12v-.03c-.86-.27-1.74-.56-2.61-.89-1-.38-2-.82-2.96-1.37-.64-.37-1.27-.79-1.87-1.29-.79-.66-1.53-1.46-2.13-2.4-.34-.54-.63-1.12-.86-1.74-.27-.71-.45-1.47-.56-2.25-.07-.54-.11-1.08-.11-1.61,0-1.15.17-2.28.48-3.35.31-1.07.77-2.08,1.35-3.01,1.16-1.86,2.81-3.41,4.8-4.45.66-.35,1.36-.64,2.1-.87.73-.23,1.49-.4,2.28-.49.54-.07,1.07-.1,1.6-.1,1.86,0,3.66.4,5.28,1.13,1.62.73,3.07,1.79,4.25,3.11.78.88,1.45,1.88,1.96,2.98l-5.75,2.68c-.36-.78-.9-1.47-1.57-2.04-.67-.57-1.47-1-2.34-1.26-.58-.17-1.19-.26-1.83-.26-.27,0-.55.05-.82.05h0c-.61.11-1.18.23-1.7.45-.53.22-1.01.5-1.44.84-.87.67-1.53,1.55-1.91,2.53-.26.65-.39,1.35-.4,2.07,0,.25.02.51.05.76.06.44.16.77.29,1.06.13.29.29.54.5.79.14.17.31.33.5.49.26.22.57.44.94.65.49.29,1.08.57,1.74.83.88.35,1.9.69,2.98,1.02v.03c.94.3,1.9.61,2.86.98,1.08.41,2.15.89,3.18,1.48.69.4,1.36.85,1.99,1.38.84.7,1.62,1.55,2.25,2.55.36.57.67,1.19.91,1.85.28.75.48,1.55.59,2.39.08.58.12,1.15.12,1.72Z"/>
      <path class="cls-1" d="M230.78,80.22h-.04v-.41c0,.13.04.3.04.41Z"/>
      <path class="cls-1" d="M257.71,79.81c0,.05,0,.11,0,.16v-.16h0Z"/>
      <path class="cls-1" d="M257.68,50.21v29.76c0,2-.47,3.92-1.27,5.64-.83,1.77-2.02,3.33-3.51,4.59-.99.84-2.13,1.54-3.35,2.07-1.61.7-3.38,1.09-5.29,1.1h0c-1.37,0-2.78-.22-4.07-.63-1.29-.41-2.48-1-3.56-1.75-2.16-1.49-3.83-3.57-4.83-5.98-.62-1.5-1-3.13-1.04-4.83,0-.13-.02-.25-.02-.38v-29.6h6.44v29.6c0,1.22.25,2.35.72,3.35.47,1,1.14,1.87,1.94,2.55.54.45,1.13.82,1.76,1.09.82.35,1.71.55,2.66.56h0c.74,0,1.39-.11,2.04-.32.65-.21,1.26-.51,1.83-.9,1.13-.78,2.07-1.92,2.64-3.29.36-.87.57-1.89.59-2.84h0v-29.79h6.34Z"/>
      <polygon class="cls-2" points="73.67 25.09 76.24 30.48 60.68 30.48 63.34 25.09 73.67 25.09"/>
      <polygon class="cls-2" points="89.32 43.37 82.4 43.37 76.24 30.46 73.67 25.05 68.59 14.42 63.34 25.04 60.68 30.45 54.31 43.37 47.38 43.37 68.61 .05 89.32 43.37"/>
      <path class="cls-2" d="M153.73,21.07s0,.15,0,.22c0-.07,0-.22,0-.22h0Z"/>
      <path class="cls-2" d="M153.73,21.5h0c0-.11,0-.18,0-.28,0,.09,0,.17,0,.28Z"/>
      <path class="cls-2" d="M153.72,21.03c-.06-2.78-.64-5.44-1.65-7.87-1.6-3.86-4.28-7.15-7.67-9.47-1.69-1.16-3.56-2.09-5.56-2.72-1.98-.63-4.08-.94-6.26-.95-.02,0-.05.02-.07.02h-11.65v43.32h10.24c.12,0,.24-.02.35-.03,2.98-.04,5.83-.67,8.44-1.75,4.06-1.69,7.51-4.51,9.95-8.06,1.22-1.78,2.19-3.75,2.85-5.85.62-1.95.97-4.01,1.01-6.14,0-.09,0-.19,0-.28h0c0-.08,0-.15,0-.23ZM146.41,27.35c-1.25,2.91-3.35,5.4-6,7.16-1.33.88-2.79,1.6-4.35,2.08-1.56.48-3.22.76-4.95.76h-4.22V6.07h5.69c2.08,0,4.04.41,5.83,1.18,2.72,1.17,5.05,3.12,6.69,5.59.82,1.24,1.47,2.6,1.92,4.05.42,1.39.66,2.86.68,4.4-.04,2.15-.49,4.18-1.29,6.04Z"/>
      <path class="cls-2" d="M132.58,0h-.07.07Z"/>
      <path class="cls-2" d="M131.43,43.32v.05h-.32c.12,0,.22-.05.32-.05Z"/>
      <polygon class="cls-2" points="221.28 6.07 221.28 19.07 238.19 19.07 238.19 25.09 221.28 25.09 221.28 43.37 215.26 43.37 215.26 .05 246.75 .05 246.75 6.07 221.28 6.07"/>
      <polyline class="cls-2" points="0 43.37 41.98 43.37 41.98 39.24 0 39.24"/>
      <polyline class="cls-2" points="157.58 .05 157.58 43.37 163.6 43.37 163.6 .05"/>
      <path class="cls-2" d="M208.59,13.37c-1.58-3.87-4.21-7.17-7.55-9.52-1.67-1.17-3.52-2.1-5.5-2.74-1.98-.64-4.08-.98-6.26-.98-2.9,0-5.67.61-8.19,1.72-3.77,1.66-6.95,4.41-9.2,7.86-1.12,1.72-2.01,3.62-2.62,5.65-.61,2.03-.93,4.18-.93,6.4,0,2.96.58,5.8,1.63,8.38,1.58,3.87,4.21,7.17,7.55,9.52,1.67,1.17,3.52,2.1,5.49,2.74,1.98.64,4.08.98,6.26.98,2.9,0,5.67-.61,8.19-1.72,3.77-1.66,6.96-4.41,9.2-7.86,1.12-1.72,2.01-3.62,2.62-5.65.61-2.03.93-4.18.93-6.4,0-2.96-.58-5.8-1.63-8.38ZM203.02,27.85c-1.14,2.81-3.05,5.19-5.43,6.86-1.19.84-2.5,1.49-3.89,1.94-1.39.45-2.87.69-4.41.69-2.05,0-3.99-.43-5.77-1.21-1.33-.58-2.57-1.37-3.68-2.32-1.66-1.42-3.03-3.22-3.98-5.27-.95-2.05-1.49-4.35-1.49-6.8,0-2.18.42-4.24,1.19-6.11,1.14-2.81,3.05-5.19,5.43-6.86,1.19-.83,2.5-1.49,3.89-1.94,1.39-.45,2.87-.69,4.4-.69,2.05,0,3.99.43,5.77,1.21,1.33.59,2.57,1.37,3.68,2.32,1.66,1.42,3.03,3.22,3.98,5.27.95,2.05,1.49,4.35,1.49,6.8,0,2.18-.42,4.24-1.19,6.11Z"/>
      <path class="cls-2" d="M89.07,30.2h-.04v-.41c0,.13.04.3.04.41Z"/>
      <path class="cls-2" d="M116,29.8c0,.05,0,.11,0,.16v-.16h0Z"/>
      <path class="cls-2" d="M115.97.2v29.76c0,2-.47,3.92-1.27,5.64-.83,1.77-2.02,3.33-3.51,4.59-.99.84-2.13,1.54-3.35,2.07-1.61.7-3.38,1.09-5.29,1.1h0c-1.37,0-2.78-.22-4.07-.63-1.29-.41-2.48-1-3.56-1.75-2.16-1.49-3.83-3.57-4.83-5.98-.62-1.5-1-3.13-1.04-4.83,0-.13-.02-.25-.02-.38V.2h6.44v29.6c0,1.22.25,2.35.72,3.35.47,1,1.14,1.87,1.94,2.55.54.45,1.13.82,1.76,1.09.82.35,1.71.55,2.66.56h0c.74,0,1.39-.11,2.04-.32.65-.21,1.26-.51,1.83-.9,1.13-.78,2.07-1.92,2.64-3.29.36-.87.57-1.89.59-2.84h0V.2h6.34Z"/>
      <polygon class="cls-2" points="273.64 21.88 287.46 43.37 280.24 43.37 270.07 27.45 259.93 43.26 252.72 43.26 266.49 21.83 252.63 .16 259.72 .16 270.07 16.28 280.46 .16 287.54 .16 273.64 21.88"/>
    </g>
  </g>
</svg>